# AST/ASF file generated using VICON BodyLanguage
# -----------------------------------------------
:version 1.10
:name VICON
:units
  mass 1.0
  length 0.45
  angle deg
:documentation
   .ast/.asf automatically generated from VICON data using
   VICON BodyBuilder and BodyLanguage model FoxedUp or BRILLIANT.MOD
:root
   order TX TY TZ RX RY RZ
   axis XYZ
   position 0 0 0  
   orientation 0 -0 0 
:bonedata
  begin
     id 1 
     name lhipjoint
     direction 0.432694 -0.693742 0.575759 
     length 2.19277 
     axis 0 -0 0  XYZ
  end
  begin
     id 2 
     name lfemur
     direction 0.34202 -0.939693 0  
     length 6.69022  
     axis 0 -0 20  XYZ
    dof rx ry rz
    limits (-160.0 20.0)
           (-70.0 70.0)
           (-60.0 70.0)
  end
  begin
     id 3 
     name ltibia
     direction 0.34202 -0.939693 0   
     length 6.50337   
     axis 0 -0 20   XYZ
    dof rx
    limits (-10.0 170.0)
  end
  begin
     id 4 
     name lfoot
     direction 0.158999 -0.435969 0.885805   
     length 2.70564   
     axis -90 -1.13533e-015 20   XYZ
    dof rx rz
    limits (-45.0 90.0)
           (-70.0 20.0)
  end
  begin
     id 5 
     name ltoes
     direction -0.00592919 0.00964381 0.999936   
     length 1.29929   
     axis -90 -1.13533e-015 20   XYZ
    dof rx
    limits (-90.0 20.0)
  end
  begin
     id 6 
     name rhipjoint
     direction -0.414359 -0.700339 0.581234   
     length 2.17212  
     axis 0 -0 0  XYZ 
  end
  begin
     id 7 
     name rfemur
     direction -0.34202 -0.939693 0   
     length 7.17659   
     axis 0 -0 -20   XYZ
    dof rx ry rz
    limits (-160.0 20.0)
           (-70.0 70.0)
           (-70.0 60.0)
  end
  begin
     id 8 
     name rtibia
     direction -0.34202 -0.939693 0   
     length 6.36669   
     axis 0 -0 -20   XYZ
    dof rx
    limits (-10.0 170.0)
 end
 begin
     id 9 
     name rfoot
     direction -0.137064 -0.37658 0.916188   
     length 2.22351  
     axis -90 1.13533e-015 -20   XYZ
    dof rx rz
    limits (-45.0 90.0)
           (-20.0 70.0)
  end
  begin
     id 10 
     name rtoes
     direction -0.000784077 -0.00289101 0.999996   
     length 1.09522   
     axis -90 1.13533e-015 -20   XYZ
    dof rx
    limits (-90.0 20.0)
  end
  begin
     id 11 
     name lowerback
     direction -0.0176242 0.984912 -0.172157   
     length 1.65301   
     axis 0 -0 0   XYZ
    dof rx ry rz
    limits (-20.0 45.0)
           (-30.0 30.0)
           (-30.0 30.0)
  end
  begin
     id 12 
     name upperback
     direction -0.00218128 0.998776 -0.0494072   
     length 1.67776   
     axis 0 -0 0   XYZ
    dof rx ry rz
    limits (-20.0 45.0)
           (-30.0 30.0)
           (-30.0 30.0)
  end
  begin
     id 13 
     name thorax
     direction 0.00544186 0.999658 0.0255711   
     length 1.72293   
     axis 0 -0 0   XYZ
    dof rx ry rz
    limits (-20.0 45.0)
           (-30.0 30.0)
           (-30.0 30.0)
  end
  begin
     id 14 
     name lowerneck
     direction -0.105325 0.983841 0.144785   
     length 2.14226   
     axis 0 -0 0   XYZ
    dof rx ry rz
    limits (-20.0 45.0)
           (-30.0 30.0)
           (-30.0 30.0)
  end
  begin
     id 15 
     name upperneck
     direction 0.0547957 0.988053 -0.144041   
     length 2.17508   
     axis 0 -0 0   XYZ
    dof rx ry rz
    limits (-20.0 45.0)
           (-30.0 30.0)
           (-30.0 30.0)
  end
  begin
     id 16
     name head
     direction 0.0247488 0.997534 -0.0656813  
     length 2.20048  
     axis 0 -0 0   XYZ
    dof rx ry rz
    limits (-20.0 45.0)
           (-30.0 30.0)
           (-30.0 30.0)
  end
  begin
     id 17 
     name lclavicle
     direction 0.820559 0.567247 -0.0701026  
     length 4.09615  
     axis 0 -0 0   XYZ
    dof ry rz
    limits (-20.0 10.0)
           (0.0 20.0)
  end
  begin
     id 18 
     name lhumerus
     direction 0.999977 -0.0067566 -9.96392e-005   
     length 4.59333   
     axis -180 -30 -90   XYZ
    dof rx ry rz
    limits (-60.0 90.0)
           (-90.0 90.0)
           (-90.0 90.0)
  end
  begin
     id 19
     name lradius
     direction 1 -4.48982e-011 -2.53425e-027   
     length 2.81151   
     axis -180 -30 -90   XYZ
    dof rx
    limits (-10.0 170.0)
  end
  begin
     id 20
     name lwrist
     direction 1 -4.48939e-011 -7.39254e-028   
     length 1.40576   
     axis 2.56395e-016 90 90   XYZ
    dof ry
    limits (-180.0 0.0)
 end
  begin
     id 21 
     name lhand
     direction 1 -4.48939e-011 -1.47851e-027   
     length 0.895651   
     axis 9.43423e-016 90 90   XYZ
    dof rx rz
    limits (-90.0 90.0)
           (-45.0 45.0)
  end
  begin
     id 22 
     name lfingers
     direction 1 -4.48978e-011 -2.95702e-027   
     length 0.722097   
     axis 1.88685e-015 90 90   XYZ
    dof rx
    limits (0.0 90.0)
  end
  begin
     id 23
     name lthumb
     direction 0.707107 -6.34931e-011 0.707107   
     length 1.03679   
     axis -90 45 -9.86935e-015   XYZ
    dof rx rz
    limits (-45.0 45.0)
           (-45.0 45.0)
  end
  begin
     id 24 
     name rclavicle
     direction -0.831414 0.553102 -0.0531864   
     length 4.24872  
     axis 0 -0 0   XYZ 
    dof ry rz
    limits (-10.0 20.0)
           (-20.0 0.0)
  end
  begin
     id 25 
     name rhumerus
     direction -0.999916 -0.000939607 0.0129331  
     length 4.74834   
     axis -180 30 90   XYZ
    dof rx ry rz
    limits (-90.0 60.0)
           (-90.0 90.0)
           (-90.0 90.0)
  end
  begin
     id 26 
     name rradius
     direction -1 -4.48956e-011 -1.31752e-027   
     length 2.79907   
     axis -180 30 90   XYZ
    dof rx
    limits (-10.0 170.0)
  end
  begin
     id 27 
     name rwrist
     direction -1 -4.4897e-011 -7.39254e-028   
     length 1.39954   
     axis 2.56395e-016 -90 -90   XYZ
    dof ry
    limits (-180.0 0.0)
  end
  begin
     id 28
     name rhand
     direction -0.999997 -0.00250697 0.000800838   
     length 0.953304   
     axis 9.43423e-016 -90 -90   XYZ
    dof rx rz
    limits (-90.0 90.0)
           (-45.0 45.0)
  end
  begin
     id 29
     name rfingers
     direction -1 -4.48954e-011 -2.95702e-027   
     length 0.763342   
     axis 1.88685e-015 -90 -90   XYZ
    dof rx
    limits (0.0 90.0)
  end
  begin
     id 30
     name rthumb
     direction -0.709701 -0.00217037 0.7045   
     length 1.10115   
     axis -90 -45 9.86935e-015   XYZ
    dof rx rz
    limits (-45.0 45.0)
           (-45.0 45.0)
  end
:hierarchy
  begin
    root lhipjoint rhipjoint lowerback
    lhipjoint lfemur
    lfemur ltibia
    ltibia lfoot
    lfoot ltoes
    rhipjoint rfemur
    rfemur rtibia
    rtibia rfoot
    rfoot rtoes
    lowerback upperback
    upperback thorax
    thorax lowerneck lclavicle rclavicle
    lowerneck upperneck
    upperneck head
    lclavicle lhumerus
    lhumerus lradius
    lradius lwrist
    lwrist lhand lthumb
    lhand lfingers
    rclavicle rhumerus
    rhumerus rradius
    rradius rwrist
    rwrist rhand rthumb
    rhand rfingers
  end

#!OML:ASF G:\ViconDB\ViconDB\414\test\team2\shane.ASF
:FULLY-SPECIFIED
:DEGREES
1
root 3.21958 15.8317 -37.7774 -0.662679 0.532491 -7.26538
lowerback 6.39701 0.44779 5.96995
upperback 0.971149 1.05331 1.66132
thorax -2.50833 0.478005 -1.7206
lowerneck -17.2815 -4.51987 -9.92276
upperneck 25.3603 -6.81818 11.6391
head 11.9467 -2.60872 5.01012
rclavicle 9.06955e-016 -2.78299e-015
rhumerus -33.0581 13.4969 -96.1793
rradius 31.8594
rwrist 33.3543
rhand -29.6971 -15.4103
rfingers 7.12502
rthumb -3.02492 -45.3686
lclavicle 9.06955e-016 -2.78299e-015
lhumerus -36.6998 -31.7444 103.072
lradius 22.6236
lwrist -15.9085
lhand -35.893 8.79614
lfingers 7.12502
lthumb -9.00652 38.5839
rfemur -5.41342 -13.6824 21.5854
rtibia 37.0676
rfoot -30.6076 -1.41953
rtoes -5.84722
lfemur -6.10815 7.40671 1.53773
ltibia 34.9359
lfoot -28.1593 -11.4101
ltoes -14.3413
2
root 3.20416 15.8396 -37.7935 -0.597621 0.30757 -6.72752
lowerback 6.91878 0.517136 5.41359
upperback 0.863327 1.14795 1.60124
thorax -2.91487 0.518128 -1.48862
lowerneck -17.4236 -4.58813 -10.0447
upperneck 25.9308 -6.83196 11.3392
head 12.1927 -2.65591 4.93486
rclavicle 4.52235e-015 8.54774e-015
rhumerus -32.8777 13.3872 -95.7595
rradius 31.9682
rwrist 33.7649
rhand -29.5949 -15.6423
rfingers 7.12502
rthumb -2.92624 -45.602
lclavicle 4.52235e-015 8.54774e-015
lhumerus -36.9707 -32.3231 103.634
lradius 22.7359
lwrist -15.1813
lhand -35.6679 8.6248
lfingers 7.12502
lthumb -8.7893 38.4218
rfemur -5.61436 -13.5389 21.1089
rtibia 37.2012
rfoot -30.7569 -1.52536
rtoes -5.3201
lfemur -6.32705 7.82972 1.15251
ltibia 35.4047
lfoot -28.4956 -12.1251
ltoes -15.3918
3
root 3.18938 15.8421 -37.8195 -0.509329 0.186032 -6.41713
lowerback 7.1121 0.499042 5.24249
upperback 0.992976 1.11581 1.51567
thorax -2.89198 0.506163 -1.48052
lowerneck -17.6664 -4.65625 -10.2123
upperneck 26.2143 -6.86061 11.2654
head 12.3625 -2.68637 4.94144
rclavicle 3.0265e-014 3.91606e-014
rhumerus -32.6615 14.4866 -95.8304
rradius 32.6848
rwrist 32.1242
rhand -29.1606 -16.0908
rfingers 7.12502
rthumb -2.5068 -46.0558
lclavicle 3.0265e-014 3.91606e-014
lhumerus -36.7004 -32.8301 103.601
lradius 22.74
lwrist -15.2694
lhand -35.7573 8.88745
lfingers 7.12502
lthumb -8.87562 38.6808
rfemur -5.87117 -13.5398 20.8867
rtibia 37.2797
rfoot -30.8144 -1.62483
rtoes -5.30744
lfemur -6.78156 8.22864 0.996201
ltibia 36.2575
lfoot -28.6249 -12.8297
ltoes -15.984
4
root 3.17602 15.8469 -37.8432 -0.520599 -0.00485923 -6.39199
lowerback 7.57228 0.462357 5.5387
upperback 1.03912 1.11449 1.3264
thorax -3.09178 0.497119 -1.84833
lowerneck -17.8764 -4.63319 -9.96068
upperneck 26.6395 -6.84971 11.0124
head 12.553 -2.67941 4.81569
rclavicle -4.34841e-015 -5.76476e-015
rhumerus -32.3032 14.3442 -95.89
rradius 32.76
rwrist 32.2986
rhand -30.2139 -16.2394
rfingers 7.12502
rthumb -3.52399 -46.19
lclavicle -4.34841e-015 -5.76476e-015
lhumerus -36.781 -33.557 103.541
lradius 22.8952
lwrist -14.8738
lhand -35.7445 8.9149
lfingers 7.12502
lthumb -8.86322 38.7088
rfemur -6.01393 -13.4158 20.9697
rtibia 37.3597
rfoot -30.8504 -1.71056
rtoes -5.21174
lfemur -7.04449 8.43386 1.15299
ltibia 37.2092
lfoot -28.2314 -13.5773
ltoes -15.4668
5
root 3.16374 15.8505 -37.87 -0.6071 -0.318207 -6.14625
lowerback 8.18035 0.464124 5.31412
upperback 1.09395 1.13691 1.30096
thorax -3.3767 0.504396 -1.76018
lowerneck -18.0436 -4.62208 -10.0911
upperneck 27.0443 -6.763 10.8511
head 12.7375 -2.66889 4.80559
rclavicle -1.59028e-015 -8.15017e-015
rhumerus -32.1471 14.4748 -95.3928
rradius 33.1164
rwrist 33.3591
rhand -29.8384 -15.4747
rfingers 7.12502
rthumb -3.16142 -45.431
lclavicle -1.59028e-015 -8.15017e-015
lhumerus -36.4437 -33.3411 103.301
lradius 22.5162
lwrist -15.7234
lhand -35.9854 8.49694
lfingers 7.12502
lthumb -9.09571 38.2808
rfemur -6.07461 -13.2918 20.7567
rtibia 37.4339
rfoot -30.8633 -1.59321
rtoes -5.10874
lfemur -7.22567 8.86112 1.08965
ltibia 38.4773
lfoot -27.6973 -14.7403
ltoes -14.8569
6
root 3.15399 15.8525 -37.9049 -0.569275 -0.4899 -6.09649
lowerback 8.7643 0.435491 5.42797
upperback 1.11553 1.14563 1.22165
thorax -3.67579 0.499423 -1.91602
lowerneck -18.1694 -4.65981 -10.113
upperneck 27.2563 -6.79162 10.7656
head 12.8512 -2.6908 4.7788
rclavicle 3.47376e-014 9.74045e-015
rhumerus -32.0932 15.0079 -95.3129
rradius 34.0226
rwrist 31.9503
rhand -29.7852 -15.9172
rfingers 7.12502
rthumb -3.11005 -45.8742
lclavicle 3.47376e-014 9.74045e-015
lhumerus -36.0839 -33.2071 103.017
lradius 22.4786
lwrist -15.6224
lhand -35.7622 8.58923
lfingers 7.12502
lthumb -8.88035 38.3824
rfemur -6.2908 -13.1872 20.8252
rtibia 37.4918
rfoot -30.7645 -1.6544
rtoes -5.29263
lfemur -7.55844 8.8111 1.1872
ltibia 39.9769
lfoot -27.3872 -15.9112
ltoes -13.7524
7
root 3.14934 15.8568 -37.933 -0.542849 -0.933245 -6.16086
lowerback 9.27248 0.4446 5.61615
upperback 1.12946 1.20981 1.18823
thorax -3.9357 0.521421 -2.07178
lowerneck -18.1589 -4.56897 -9.95426
upperneck 27.4463 -6.64144 10.4906
head 12.8876 -2.64255 4.67418
rclavicle -1.3244e-014 -3.8763e-014
rhumerus -32.0142 15.305 -95.2538
rradius 34.6442
rwrist 31.4913
rhand -29.9054 -16.1922
rfingers 7.12502
rthumb -3.22607 -46.1475
lclavicle -1.3244e-014 -3.8763e-014
lhumerus -36.0796 -33.5047 103.089
lradius 22.4362
lwrist -15.387
lhand -35.7817 8.8118
lfingers 7.12502
lthumb -8.89915 38.6041
rfemur -6.49935 -12.8956 20.9995
rtibia 37.5821
rfoot -30.7167 -1.67645
rtoes -5.51076
lfemur -7.6173 8.93079 1.42254
ltibia 41.7253
lfoot -27.4975 -17.2142
ltoes -13.1562
8
root 3.15004 15.8583 -37.959 -0.483474 -1.49212 -6.3554
lowerback 9.69848 0.443801 5.96265
upperback 1.17966 1.27272 1.17641
thorax -4.10833 0.542873 -2.29284
lowerneck -18.1595 -4.46062 -9.86813
upperneck 27.5529 -6.45499 10.2839
head 12.8942 -2.57752 4.61237
rclavicle -1.44119e-015 7.95139e-015
rhumerus -32.0382 15.5558 -95.1725
rradius 35.5167
rwrist 31.0022
rhand -29.8349 -16.4305
rfingers 7.12502
rthumb -3.15806 -46.3868
lclavicle -1.44119e-015 7.95139e-015
lhumerus -35.8385 -33.147 102.761
lradius 22.3428
lwrist -15.4592
lhand -35.7922 8.77019
lfingers 7.12502
lthumb -8.90924 38.5621
rfemur -6.78815 -12.6316 21.2714
rtibia 37.7589
rfoot -30.5947 -1.48808
rtoes -5.71372
lfemur -7.63922 8.93047 1.72569
ltibia 43.5098
lfoot -27.6157 -18.3738
ltoes -13.4351
9
root 3.15312 15.8601 -37.9844 -0.286439 -1.98309 -6.49791
lowerback 9.95263 0.404416 6.14776
upperback 1.22047 1.2587 1.20399
thorax -4.20517 0.530843 -2.37003
lowerneck -18.1602 -4.34945 -9.82032
upperneck 27.6236 -6.26066 10.1134
head 12.8888 -2.50884 4.57154
rclavicle 1.22253e-014 1.76918e-014
rhumerus -32.2011 16.3353 -95.0338
rradius 36.5427
rwrist 30.0714
rhand -30.1245 -16.0719
rfingers 7.12502
rthumb -3.43766 -46.024
lclavicle 1.22253e-014 1.76918e-014
lhumerus -35.3957 -32.3826 102.286
lradius 22.1376
lwrist -16.0129
lhand -35.906 8.5877
lfingers 7.12502
lthumb -9.01911 38.3749
rfemur -7.23955 -12.4891 21.497
rtibia 37.9789
rfoot -30.7266 -1.35102
rtoes -5.87111
lfemur -7.67606 8.7931 1.96052
ltibia 45.336
lfoot -27.4779 -19.7775
ltoes -12.927
10
root 3.16521 15.8439 -37.9982 -0.207812 -3.02664 -6.53929
lowerback 10.0633 0.546465 6.31658
upperback 1.41043 1.46031 1.11869
thorax -4.0436 0.635592 -2.58004
lowerneck -18.2638 -4.23584 -9.7236
upperneck 27.7164 -6.09079 10.0044
head 12.9184 -2.43533 4.54332
rclavicle -1.36913e-014 -2.0276e-014
rhumerus -31.9918 16.5339 -95.0215
rradius 37.314
rwrist 29.8033
rhand -30.4112 -16.6097
rfingers 7.12502
rthumb -3.71458 -46.557
lclavicle -1.36913e-014 -2.0276e-014
lhumerus -34.9106 -31.7467 101.742
lradius 21.8524
lwrist -16.7947
lhand -36.0512 8.55797
lfingers 7.12502
lthumb -9.15922 38.3391
rfemur -7.52945 -12.3197 21.438
rtibia 38.1801
rfoot -30.7995 -0.386944
rtoes -5.42972
lfemur -7.08707 9.17745 2.03931
ltibia 46.9945
lfoot -28.0119 -20.2323
ltoes -13.8712
